<?xml version="1.0" encoding="utf-8"?>
<!-- Generator: Adobe Illustrator 16.0.3, SVG Export Plug-In . SVG Version: 6.00 Build 0)  -->
<!DOCTYPE svg PUBLIC "-//W3C//DTD SVG 1.1//EN" "http://www.w3.org/Graphics/SVG/1.1/DTD/svg11.dtd">
<svg version="1.1" id="Ebene_1" xmlns="http://www.w3.org/2000/svg" xmlns:xlink="http://www.w3.org/1999/xlink" x="0px" y="0px"
	 width="217.886px" height="52.341px" viewBox="0 0 217.886 52.341" enable-background="new 0 0 217.886 52.341"
	 xml:space="preserve">
<g>
	<rect y="6" fill="none" width="217.886" height="46.341"/>
	<path fill="#FFFFFF" d="M5.199,8.044v0.6c0,0.24-0.2,0.52-0.52,0.52s-0.52-0.28-0.52-0.52v-2.08c0-0.32,0.2-0.52,0.52-0.52
		c0.04,0,0.12,0,0.16,0.04c0.12,0,0.24,0.08,0.36,0.16l1.2,1.72c0.16,0.2,0.08,0.52-0.12,0.68c-0.12,0.12-0.2,0.12-0.32,0.12
		c-0.16,0-0.28-0.08-0.4-0.24L5.199,8.044z M4.159,10.724c0-0.32,0.2-0.52,0.52-0.52s0.52,0.2,0.52,0.52v2.08
		c0,0.24-0.2,0.48-0.52,0.48s-0.52-0.24-0.52-0.48V10.724z M4.159,14.843c0-0.32,0.2-0.52,0.52-0.52s0.52,0.2,0.52,0.52v2.08
		c0,0.24-0.2,0.52-0.52,0.52s-0.52-0.28-0.52-0.52V14.843z M4.159,19.002c0-0.32,0.2-0.52,0.52-0.52s0.52,0.2,0.52,0.52v2.08
		c0,0.24-0.2,0.48-0.52,0.48s-0.52-0.24-0.52-0.48V19.002z M4.159,23.121c0-0.28,0.2-0.52,0.52-0.52s0.52,0.24,0.52,0.52v2.08
		c0,0.28-0.2,0.52-0.52,0.52s-0.52-0.24-0.52-0.52V23.121z M4.159,27.281c0-0.32,0.2-0.52,0.52-0.52s0.52,0.2,0.52,0.52v2.08
		c0,0.24-0.2,0.48-0.52,0.48s-0.52-0.24-0.52-0.48V27.281z M4.159,31.4c0-0.28,0.2-0.52,0.52-0.52s0.52,0.24,0.52,0.52v2.08
		c0,0.28-0.2,0.52-0.52,0.52s-0.52-0.24-0.52-0.52V31.4z M6.759,10.244c-0.16-0.24-0.12-0.56,0.08-0.72c0.28-0.2,0.6-0.16,0.72,0.12
		l1.24,1.64c0.16,0.24,0.12,0.56-0.12,0.72c-0.08,0.12-0.16,0.12-0.28,0.12c-0.2,0-0.36-0.08-0.48-0.2L6.759,10.244z M9.198,13.603
		c-0.16-0.24-0.12-0.56,0.08-0.72c0.28-0.2,0.56-0.16,0.72,0.12l1.2,1.64c0.2,0.28,0.16,0.56-0.12,0.72
		c-0.08,0.12-0.2,0.12-0.28,0.12c-0.16,0-0.32-0.08-0.44-0.2L9.198,13.603z M11.598,16.922c-0.2-0.2-0.16-0.52,0.12-0.68
		c0.2-0.2,0.56-0.16,0.72,0.12l1.2,1.64c0.16,0.28,0.08,0.56-0.12,0.72c-0.08,0.08-0.2,0.12-0.32,0.12s-0.28-0.04-0.4-0.2
		L11.598,16.922z M16.117,21.802c0,0.12-0.08,0.24-0.16,0.28c-0.12,0.08-0.2,0.12-0.32,0.12c-0.16,0-0.32-0.04-0.4-0.2l-1.24-1.72
		c-0.16-0.2-0.12-0.52,0.16-0.72c0.2-0.16,0.52-0.12,0.72,0.16l1.2,1.64C16.117,21.521,16.157,21.682,16.117,21.802
		c-0.04-0.12,0-0.28,0.08-0.44l1.28-1.64c0.12-0.28,0.44-0.32,0.72-0.16c0.2,0.2,0.24,0.52,0.08,0.72l-1.24,1.72
		c-0.04,0.16-0.24,0.2-0.4,0.2c-0.12,0-0.2-0.04-0.28-0.12C16.237,22.042,16.157,21.921,16.117,21.802z M18.637,18.002l1.2-1.64
		c0.2-0.28,0.52-0.32,0.72-0.12c0.28,0.16,0.32,0.48,0.16,0.68l-1.24,1.72c-0.12,0.16-0.24,0.2-0.4,0.2c-0.12,0-0.24-0.04-0.32-0.12
		C18.557,18.562,18.477,18.282,18.637,18.002z M21.077,14.643l1.2-1.64c0.16-0.28,0.52-0.32,0.72-0.12
		c0.24,0.16,0.32,0.48,0.12,0.72l-1.2,1.68c-0.12,0.12-0.28,0.2-0.44,0.2c-0.08,0-0.2,0-0.28-0.12
		C20.997,15.203,20.917,14.923,21.077,14.643z M23.516,11.283l1.2-1.64c0.16-0.28,0.44-0.32,0.72-0.12c0.2,0.16,0.24,0.48,0.08,0.72
		l-1.16,1.68c-0.12,0.12-0.28,0.2-0.44,0.2c-0.08,0-0.2,0-0.28-0.12C23.356,11.843,23.316,11.523,23.516,11.283z M27.076,8.084
		l-0.32,0.44c-0.08,0.16-0.24,0.24-0.44,0.24c-0.12,0-0.2,0-0.28-0.12c-0.24-0.16-0.28-0.479-0.16-0.68l1.24-1.72
		c0.08-0.08,0.2-0.16,0.32-0.16c0.04-0.04,0.12-0.04,0.16-0.04c0.32,0,0.52,0.2,0.52,0.52v2.08c0,0.24-0.2,0.52-0.52,0.52
		c-0.24,0-0.52-0.28-0.52-0.52V8.084z M27.076,10.724c0-0.32,0.28-0.52,0.52-0.52c0.32,0,0.52,0.2,0.52,0.52v2.08
		c0,0.24-0.2,0.48-0.52,0.48c-0.24,0-0.52-0.24-0.52-0.48V10.724z M27.076,14.843c0-0.32,0.28-0.52,0.52-0.52
		c0.32,0,0.52,0.2,0.52,0.52v2.08c0,0.24-0.2,0.52-0.52,0.52c-0.24,0-0.52-0.28-0.52-0.52V14.843z M27.076,19.002
		c0-0.32,0.28-0.52,0.52-0.52c0.32,0,0.52,0.2,0.52,0.52v2.08c0,0.24-0.2,0.48-0.52,0.48c-0.24,0-0.52-0.24-0.52-0.48V19.002z
		 M27.076,23.121c0-0.28,0.28-0.52,0.52-0.52c0.32,0,0.52,0.24,0.52,0.52v2.08c0,0.28-0.2,0.52-0.52,0.52
		c-0.24,0-0.52-0.24-0.52-0.52V23.121z M27.076,27.281c0-0.32,0.28-0.52,0.52-0.52c0.32,0,0.52,0.2,0.52,0.52v2.08
		c0,0.24-0.2,0.48-0.52,0.48c-0.24,0-0.52-0.24-0.52-0.48V27.281z M27.076,31.4c0-0.28,0.28-0.52,0.52-0.52
		c0.32,0,0.52,0.24,0.52,0.52v2.08c0,0.28-0.2,0.52-0.52,0.52c-0.24,0-0.52-0.24-0.52-0.52V31.4z"/>
	<path fill="#FFFFFF" d="M35.839,14.683c0-0.28,0.2-0.52,0.52-0.52c0.24,0,0.48,0.24,0.48,0.52v1.4c0,0.24-0.24,0.52-0.48,0.52
		c-0.32,0-0.52-0.28-0.52-0.52V14.683z M35.839,18.122c0-0.32,0.2-0.52,0.52-0.52c0.24,0,0.48,0.2,0.48,0.52v2
		c0,0.28-0.24,0.52-0.48,0.52c-0.32,0-0.52-0.24-0.52-0.52V18.122z M35.839,22.162c0-0.32,0.2-0.52,0.52-0.52
		c0.24,0,0.48,0.2,0.48,0.52v2.04c0,0.24-0.24,0.48-0.48,0.48c-0.32,0-0.52-0.24-0.52-0.48V22.162z M35.839,26.201
		c0-0.24,0.2-0.48,0.52-0.48c0.24,0,0.48,0.2,0.48,0.48c0,0.6,0.12,1.28,0.32,1.84c0.08,0.28-0.04,0.56-0.36,0.64h-0.16
		c-0.2,0-0.4-0.08-0.44-0.36C36,27.681,35.839,26.961,35.839,26.201z M37.119,30.32c-0.16-0.28-0.12-0.56,0.12-0.72
		c0.28-0.16,0.56-0.08,0.72,0.16c0.36,0.52,0.76,1,1.24,1.4c0.2,0.2,0.24,0.52,0.04,0.72c-0.12,0.12-0.28,0.2-0.4,0.2
		s-0.2-0.04-0.32-0.16C37.959,31.48,37.519,30.92,37.119,30.32z M39.839,41.798c-0.24-0.08-0.4-0.36-0.36-0.6
		c0.12-0.32,0.36-0.44,0.6-0.36c0.64,0.16,1.28,0.24,1.92,0.32c0.28,0,0.48,0.2,0.48,0.48s-0.28,0.52-0.52,0.52
		C41.199,42.118,40.479,41.998,39.839,41.798z M42.358,33.799c-0.76-0.16-1.4-0.36-2.08-0.64c-0.24-0.16-0.32-0.48-0.2-0.72
		c0.12-0.24,0.4-0.36,0.68-0.2c0.56,0.24,1.16,0.44,1.759,0.56c0.32,0.04,0.44,0.28,0.4,0.6c-0.04,0.24-0.24,0.4-0.44,0.4H42.358z
		 M43.878,40.999c0.68-0.12,1.28-0.32,1.84-0.56c0.24-0.12,0.56,0,0.64,0.24c0.12,0.28,0,0.56-0.24,0.68
		c-0.64,0.28-1.32,0.48-2.04,0.64h-0.08c-0.28,0-0.48-0.2-0.52-0.4C43.438,41.278,43.638,41.038,43.878,40.999z M44.398,32.88
		c0.64-0.08,1.28-0.2,1.88-0.44c0.24-0.12,0.48,0.04,0.6,0.32c0.08,0.24,0,0.52-0.24,0.64c-0.68,0.24-1.4,0.4-2.16,0.52h-0.04
		c-0.24,0-0.44-0.2-0.48-0.48C43.958,33.16,44.158,32.88,44.398,32.88z M47.397,39.479c0.48-0.4,0.96-0.8,1.36-1.32
		c0.16-0.2,0.48-0.24,0.72-0.04c0.2,0.16,0.24,0.48,0.04,0.68c-0.48,0.56-0.96,1.08-1.52,1.479c-0.12,0.04-0.2,0.12-0.32,0.12
		c-0.2,0-0.36-0.08-0.4-0.2C47.078,39.999,47.118,39.639,47.397,39.479z M47.877,31.52c0.52-0.36,0.96-0.8,1.36-1.32
		c0.16-0.2,0.48-0.24,0.72-0.08c0.2,0.2,0.24,0.48,0.04,0.76c-0.4,0.56-0.96,1.04-1.52,1.44c-0.08,0.12-0.2,0.12-0.28,0.12
		c-0.16,0-0.32-0.04-0.4-0.2C47.637,32.04,47.677,31.72,47.877,31.52z M49.797,36.599c0.28-0.56,0.52-1.16,0.68-1.8
		c0.04-0.28,0.28-0.44,0.6-0.4c0.24,0.08,0.4,0.36,0.36,0.64c-0.16,0.68-0.4,1.359-0.76,2c-0.04,0.16-0.24,0.24-0.4,0.24
		c-0.12,0-0.2,0-0.28-0.04C49.757,37.159,49.677,36.839,49.797,36.599z M50.157,28.601c0.28-0.56,0.4-1.16,0.479-1.84
		c0.04-0.24,0.28-0.44,0.56-0.44s0.48,0.24,0.48,0.48v2.04c0,0.32-0.2,0.52-0.48,0.52c-0.12,0-0.24-0.04-0.36-0.12
		c-0.04,0.04-0.12,0.04-0.16,0.04c-0.12,0-0.16,0-0.2-0.04C50.197,29.16,50.077,28.84,50.157,28.601z M50.677,16.683v-2v-0.08
		c0.04-0.24,0.24-0.439,0.52-0.439h0.08c0.04,0,0.08,0.04,0.12,0.04c0.08,0.04,0.12,0.12,0.16,0.16c0.08,0.08,0.12,0.2,0.12,0.32v2
		c0,0.08,0,0.12-0.04,0.2c-0.04,0.2-0.24,0.32-0.44,0.32h-0.16c-0.04-0.04-0.08-0.04-0.12-0.08c-0.08-0.04-0.16-0.08-0.2-0.16
		c0-0.04-0.04-0.12-0.04-0.16V16.683z M50.677,20.762v-2.04v-0.08v-0.04c0.04-0.04,0.04-0.08,0.08-0.12
		c0.04-0.12,0.12-0.2,0.24-0.24c0.04,0,0.08-0.04,0.12-0.04h0.08h0.08c0.12,0.04,0.2,0.12,0.28,0.2c0.04,0.04,0.08,0.12,0.08,0.16
		s0.04,0.08,0.04,0.08v0.08v2.04c0,0.08-0.04,0.16-0.04,0.24l-0.08,0.08c0,0.04-0.04,0.04-0.04,0.08c-0.04,0-0.08,0.04-0.12,0.04
		c0,0,0,0.04-0.04,0.04h-0.16h-0.08c-0.08,0-0.2-0.04-0.24-0.08l-0.12-0.12c-0.04,0-0.04-0.04-0.04-0.08
		c-0.04-0.04-0.04-0.08-0.04-0.12V20.762z M50.677,24.801v-2.04v-0.08v-0.04c0.04-0.08,0.08-0.12,0.12-0.2
		c0.04,0,0.04-0.04,0.08-0.04c0.08-0.08,0.2-0.12,0.32-0.12c0.16,0,0.28,0.08,0.36,0.2c0.04,0.04,0.08,0.08,0.08,0.12
		s0.04,0.08,0.04,0.08v0.08v2.04v0.12c0,0-0.04,0.04-0.04,0.08c0,0.08-0.08,0.12-0.12,0.2c-0.04,0-0.08,0.04-0.12,0.04
		c-0.04,0.04-0.08,0.04-0.12,0.04h-0.08c-0.12,0-0.24-0.04-0.32-0.08c-0.12-0.08-0.2-0.2-0.2-0.32V24.801z M50.677,32.88v-2
		c0-0.28,0.24-0.52,0.52-0.52s0.48,0.24,0.48,0.52v2c0,0.32-0.2,0.52-0.48,0.52S50.677,33.2,50.677,32.88z"/>
	<path fill="#FFFFFF" d="M60.119,29.92c-0.2-0.16-0.24-0.44-0.08-0.64c0.16-0.2,0.439-0.2,0.64-0.04c0.44,0.32,0.88,0.68,1.4,1
		c0.2,0.16,0.28,0.44,0.12,0.64c-0.08,0.12-0.24,0.2-0.4,0.2c-0.08,0-0.16-0.04-0.24-0.08C61.039,30.64,60.559,30.28,60.119,29.92z
		 M60.879,13.083c-0.04-0.24,0.16-0.44,0.4-0.48c0.24,0,0.48,0.16,0.48,0.4c0.08,0.6,0.2,1.12,0.479,1.6c0.12,0.2,0.04,0.48-0.2,0.6
		c-0.08,0.04-0.16,0.04-0.2,0.04c-0.16,0-0.32-0.08-0.44-0.24C61.119,14.443,60.919,13.803,60.879,13.083z M61.079,11.124
		c0.16-0.64,0.48-1.2,0.84-1.76c0.16-0.2,0.44-0.28,0.64-0.12c0.2,0.16,0.28,0.44,0.12,0.64c-0.32,0.479-0.6,0.959-0.72,1.479
		c-0.08,0.2-0.24,0.36-0.44,0.36c-0.04,0-0.12,0-0.16-0.04C61.119,11.604,60.999,11.363,61.079,11.124z M62.639,16.563
		c-0.2-0.16-0.2-0.44-0.04-0.64c0.2-0.2,0.479-0.2,0.64-0.04c0.4,0.36,0.88,0.72,1.4,1c0.24,0.12,0.32,0.4,0.2,0.64
		c-0.12,0.16-0.24,0.24-0.4,0.24c-0.08,0-0.16-0.04-0.24-0.08C63.599,17.362,63.079,17.002,62.639,16.563z M63.159,31.96
		c-0.2-0.12-0.28-0.4-0.16-0.6c0.12-0.24,0.4-0.32,0.6-0.2c0.52,0.28,1.04,0.56,1.6,0.8c0.24,0.08,0.36,0.36,0.24,0.6
		c-0.08,0.16-0.24,0.28-0.4,0.28c-0.08,0-0.12-0.04-0.2-0.04C64.279,32.52,63.679,32.28,63.159,31.96z M63.239,7.924
		c0.48-0.4,1.04-0.72,1.6-1.04c0.24-0.12,0.52-0.04,0.64,0.2c0.12,0.2,0.04,0.48-0.2,0.6c-0.52,0.28-1,0.6-1.439,0.959
		c-0.08,0.08-0.2,0.12-0.28,0.12c-0.16,0-0.28-0.08-0.36-0.2C63.039,8.404,63.079,8.084,63.239,7.924z M65.918,18.482
		c-0.24-0.08-0.36-0.36-0.28-0.56c0.12-0.24,0.36-0.36,0.6-0.28c0.52,0.2,1.08,0.4,1.68,0.56c0.24,0.08,0.4,0.32,0.32,0.56
		c-0.04,0.2-0.24,0.36-0.44,0.36c-0.04,0-0.08,0-0.12-0.04C67.078,18.922,66.478,18.722,65.918,18.482z M66.598,6.164
		c0.6-0.2,1.24-0.36,1.88-0.44c0.24-0.04,0.48,0.12,0.52,0.4c0.04,0.24-0.16,0.48-0.4,0.52c-0.6,0.08-1.16,0.2-1.719,0.36
		c-0.04,0.04-0.08,0.04-0.12,0.04c-0.2,0-0.36-0.12-0.44-0.32C66.238,6.484,66.358,6.244,66.598,6.164z M66.638,33.399
		c-0.24-0.04-0.4-0.32-0.32-0.56c0.08-0.24,0.32-0.36,0.56-0.32c0.56,0.2,1.12,0.32,1.719,0.4c0.24,0.04,0.44,0.28,0.4,0.52
		c-0.04,0.24-0.24,0.4-0.48,0.4h-0.04C67.838,33.72,67.198,33.6,66.638,33.399z M70.317,19.682h-0.08
		c-0.24-0.04-0.52-0.08-0.76-0.16c-0.24-0.04-0.4-0.28-0.36-0.52c0.08-0.24,0.32-0.4,0.56-0.36s0.48,0.08,0.72,0.16h0.08
		c0.36,0.08,0.68,0.12,1,0.2c0.24,0.04,0.4,0.28,0.36,0.52c-0.08,0.24-0.24,0.4-0.48,0.4c0,0-0.04-0.04-0.08-0.04
		C70.958,19.842,70.638,19.762,70.317,19.682z M70.357,6.524c-0.24-0.04-0.48-0.24-0.48-0.479c0-0.24,0.24-0.44,0.48-0.44
		c0.64,0,1.28,0.04,1.88,0.16c0.28,0.04,0.44,0.28,0.4,0.52s-0.24,0.4-0.48,0.4c0,0-0.04-0.04-0.08-0.04
		C71.518,6.564,70.958,6.524,70.357,6.524z M69.877,33.52c0-0.24,0.24-0.44,0.48-0.44h0.04c0.6,0,1.16-0.04,1.72-0.12
		c0.24-0.04,0.48,0.16,0.52,0.4c0.04,0.24-0.16,0.48-0.4,0.52c-0.6,0.08-1.2,0.12-1.84,0.12h-0.04
		C70.078,34,69.877,33.76,69.877,33.52z M73.037,20.322c-0.24-0.08-0.4-0.32-0.32-0.56c0.04-0.24,0.32-0.4,0.56-0.32
		c0.6,0.2,1.2,0.36,1.76,0.6c0.24,0.08,0.36,0.36,0.28,0.6c-0.08,0.16-0.24,0.28-0.44,0.28c-0.04,0-0.12,0-0.16-0.04
		C74.197,20.682,73.637,20.482,73.037,20.322z M73.797,7.084c-0.24-0.08-0.36-0.32-0.28-0.56c0.08-0.24,0.32-0.36,0.56-0.28
		c0.6,0.2,1.2,0.44,1.759,0.72c0.2,0.12,0.32,0.4,0.2,0.64c-0.08,0.16-0.24,0.24-0.4,0.24c-0.08,0-0.16,0-0.24-0.04
		C74.877,7.524,74.357,7.284,73.797,7.084z M73.837,32.6c0.56-0.16,1.12-0.36,1.64-0.6c0.24-0.12,0.52,0,0.6,0.2
		c0.12,0.24,0,0.52-0.2,0.6c-0.56,0.28-1.16,0.52-1.799,0.68c-0.04,0-0.08,0-0.12,0c-0.2,0-0.36-0.12-0.44-0.32
		C73.437,32.92,73.597,32.68,73.837,32.6z M76.316,21.602c-0.2-0.12-0.28-0.4-0.16-0.6c0.12-0.24,0.4-0.32,0.6-0.2
		c0.6,0.32,1.12,0.68,1.6,1.08c0.2,0.16,0.24,0.44,0.08,0.64c-0.12,0.08-0.24,0.16-0.36,0.16c-0.12,0-0.2-0.04-0.28-0.12
		C77.356,22.242,76.876,21.921,76.316,21.602z M76.997,8.644c-0.24-0.12-0.32-0.4-0.16-0.6c0.12-0.24,0.4-0.28,0.6-0.16
		c0.56,0.32,1.08,0.68,1.56,1c0.24,0.12,0.28,0.4,0.16,0.6c-0.12,0.16-0.24,0.24-0.4,0.24c-0.08,0-0.16-0.04-0.24-0.08
		C77.996,9.324,77.517,8.964,76.997,8.644z M76.997,31.12c0.48-0.36,0.92-0.72,1.28-1.16c0.16-0.2,0.44-0.2,0.64-0.04
		c0.2,0.16,0.2,0.479,0.04,0.64c-0.44,0.48-0.92,0.92-1.439,1.28c-0.08,0.08-0.16,0.12-0.28,0.12c-0.12,0-0.28-0.08-0.36-0.2
		C76.716,31.56,76.796,31.28,76.997,31.12z M78.916,23.801c-0.12-0.2-0.08-0.48,0.12-0.64c0.24-0.12,0.52-0.08,0.64,0.12
		c0.4,0.56,0.64,1.16,0.8,1.8c0.08,0.28-0.08,0.52-0.32,0.56c-0.04,0-0.08,0-0.12,0c-0.2,0-0.4-0.12-0.44-0.32
		C79.476,24.761,79.236,24.281,78.916,23.801z M79.196,28.561c0.28-0.52,0.44-1.04,0.48-1.6c0.04-0.24,0.28-0.44,0.52-0.4
		c0.24,0.04,0.44,0.28,0.4,0.52c-0.08,0.64-0.28,1.28-0.56,1.88c-0.08,0.16-0.24,0.24-0.4,0.24c-0.08,0-0.16,0-0.2-0.04
		C79.196,29.081,79.116,28.8,79.196,28.561z"/>
	<path fill="#FFFFFF" d="M87.279,14.883c0-0.24,0.24-0.48,0.52-0.48s0.48,0.24,0.48,0.48v1.4c0,0.28-0.2,0.52-0.48,0.52
		s-0.52-0.24-0.52-0.52V14.883z M87.279,18.322c0-0.32,0.24-0.52,0.52-0.52s0.48,0.2,0.48,0.52v2c0,0.28-0.2,0.52-0.48,0.52
		s-0.52-0.24-0.52-0.52V18.322z M87.279,22.361c0-0.32,0.24-0.52,0.52-0.52s0.48,0.2,0.48,0.52v1.96c0,0.28-0.2,0.52-0.48,0.52
		s-0.52-0.24-0.52-0.52V22.361z M87.279,26.361c0-0.24,0.2-0.52,0.52-0.52c0.28,0,0.48,0.2,0.48,0.52c0.08,0.6,0.16,1.24,0.32,1.8
		c0.08,0.32-0.04,0.56-0.32,0.64c-0.04,0-0.12,0-0.12,0c-0.24,0-0.44-0.08-0.52-0.32C87.439,27.801,87.319,27.121,87.279,26.361z
		 M88.559,30.44c-0.2-0.24-0.08-0.56,0.12-0.72c0.24-0.16,0.56-0.08,0.72,0.16c0.36,0.52,0.72,1,1.24,1.399c0.2,0.2,0.2,0.52,0,0.72
		c-0.08,0.08-0.2,0.16-0.32,0.16s-0.28,0-0.36-0.12C89.438,31.6,88.918,31.04,88.559,30.44z M91.758,33.24
		c-0.24-0.12-0.36-0.44-0.24-0.68c0.12-0.28,0.4-0.4,0.64-0.2c0.56,0.24,1.16,0.44,1.8,0.56c0.28,0,0.479,0.28,0.4,0.56
		c-0.04,0.28-0.24,0.4-0.48,0.4c-0.08,0-0.08,0-0.12,0C93.038,33.76,92.358,33.56,91.758,33.24z M95.837,33
		c0.64-0.08,1.24-0.2,1.8-0.44c0.24-0.12,0.52,0.04,0.64,0.28c0.12,0.28-0.04,0.56-0.32,0.64c-0.64,0.28-1.32,0.4-2.04,0.52
		c-0.04,0-0.04,0-0.04,0c-0.24,0-0.52-0.2-0.52-0.44C95.317,33.24,95.518,33,95.837,33z M99.277,31.64c0.52-0.36,0.96-0.8,1.32-1.32
		c0.2-0.2,0.52-0.24,0.72-0.12c0.24,0.24,0.24,0.52,0.08,0.76c-0.44,0.56-0.96,1.08-1.479,1.48c-0.12,0.12-0.24,0.12-0.32,0.12
		c-0.16,0-0.32-0.08-0.4-0.2C98.997,32.16,99.037,31.84,99.277,31.64z M101.557,28.72c0.2-0.56,0.32-1.16,0.44-1.799
		c0.08-0.24,0.32-0.44,0.56-0.44c0.28,0.04,0.44,0.28,0.44,0.56c-0.08,0.72-0.24,1.44-0.56,2.08c-0.04,0.2-0.24,0.32-0.44,0.32
		c-0.04,0-0.12,0-0.2-0.08C101.557,29.28,101.437,29,101.557,28.72z M102.077,14.883c0-0.24,0.2-0.48,0.479-0.48
		c0.28,0,0.52,0.24,0.52,0.48v2.04c0,0.32-0.24,0.48-0.52,0.48c-0.28,0-0.479-0.16-0.479-0.48V14.883z M102.077,18.922
		c0-0.24,0.2-0.48,0.479-0.48c0.28,0,0.52,0.24,0.52,0.48v2c0,0.32-0.24,0.52-0.52,0.52c-0.28,0-0.479-0.2-0.479-0.52V18.922z
		 M102.077,22.921c0-0.24,0.2-0.48,0.479-0.48c0.28,0,0.52,0.24,0.52,0.48v2.04c0,0.32-0.24,0.48-0.52,0.48
		c-0.28,0-0.479-0.16-0.479-0.48V22.921z"/>
	<path fill="#FFFFFF" d="M112.198,14.883c0-0.24,0.2-0.52,0.52-0.52c0.24,0,0.52,0.28,0.52,0.52v2.08c0,0.32-0.28,0.52-0.52,0.52
		c-0.32,0-0.52-0.2-0.52-0.52V14.883z M112.198,19.042c0-0.28,0.2-0.56,0.52-0.56c0.24,0,0.52,0.28,0.52,0.56v2.04
		c0,0.32-0.28,0.52-0.52,0.52c-0.32,0-0.52-0.2-0.52-0.52V19.042z M112.198,24.361v-0.04v-1.16c0-0.28,0.2-0.52,0.52-0.52h0.08
		c0.04-0.08,0.12-0.2,0.16-0.32c0.08-0.28,0.36-0.4,0.64-0.28c0.28,0.08,0.4,0.4,0.32,0.68c-0.4,0.88-0.6,1.48-0.68,1.72v0.8
		c0,0.28-0.28,0.479-0.52,0.479c-0.32,0-0.52-0.2-0.52-0.479V24.361z M112.198,27.281c0-0.28,0.2-0.52,0.52-0.52
		c0.24,0,0.52,0.24,0.52,0.52v2.08c0,0.28-0.28,0.52-0.52,0.52c-0.32,0-0.52-0.24-0.52-0.52V27.281z M112.198,31.44
		c0-0.28,0.2-0.56,0.52-0.56c0.24,0,0.52,0.28,0.52,0.56v2.04c0,0.32-0.28,0.52-0.52,0.52c-0.32,0-0.52-0.2-0.52-0.52V31.44z
		 M113.878,20.442c0.36-0.64,0.72-1.28,1.16-1.84c0.16-0.24,0.48-0.28,0.72-0.12c0.2,0.2,0.28,0.48,0.12,0.76
		c-0.4,0.56-0.76,1.12-1.08,1.64c-0.12,0.2-0.24,0.32-0.48,0.32c-0.08,0-0.16-0.08-0.24-0.12
		C113.798,21.001,113.758,20.642,113.878,20.442z M116.438,16.962c0.52-0.44,1.12-0.92,1.72-1.36c0.24-0.08,0.56-0.04,0.72,0.24
		c0.16,0.2,0.04,0.56-0.16,0.68c-0.56,0.32-1.08,0.76-1.56,1.24c-0.08,0.08-0.28,0.12-0.36,0.12c-0.16,0-0.24-0.04-0.36-0.12
		C116.238,17.522,116.238,17.162,116.438,16.962z M120.157,14.763c0.68-0.2,1.399-0.32,2.16-0.4c0.28,0,0.52,0.28,0.52,0.52
		c0,0.32-0.2,0.52-0.52,0.52c-0.64,0.08-1.28,0.16-1.88,0.32c0,0-0.08,0.04-0.12,0.04c-0.24,0-0.48-0.16-0.52-0.4
		C119.717,15.123,119.837,14.843,120.157,14.763z"/>
	<path fill="#FFFFFF" d="M128.278,15.203c-0.12-0.28,0-0.56,0.24-0.64c0.24-0.12,0.52,0,0.64,0.24l0.8,1.84
		c0.12,0.24-0.04,0.52-0.28,0.64c-0.08,0.04-0.12,0.04-0.2,0.04c-0.16,0-0.36-0.08-0.48-0.28L128.278,15.203z M129.798,18.882
		c-0.12-0.24,0-0.52,0.28-0.64c0.24-0.12,0.56,0,0.64,0.24l0.8,1.84c0.12,0.28-0.08,0.56-0.32,0.68c-0.04,0.04-0.08,0.04-0.2,0.04
		c-0.12,0-0.32-0.08-0.44-0.28L129.798,18.882z M131.358,22.602c-0.08-0.32,0-0.56,0.28-0.64c0.2-0.16,0.52,0,0.64,0.2l0.76,1.879
		c0.12,0.24,0,0.52-0.28,0.64c-0.04,0-0.08,0.08-0.16,0.08c-0.2,0-0.4-0.2-0.48-0.36L131.358,22.602z M132.917,26.241
		c-0.12-0.24,0-0.56,0.24-0.64c0.24-0.08,0.56,0,0.64,0.28l0.8,1.8c0.12,0.32,0,0.56-0.28,0.72h-0.16c-0.2,0-0.4-0.12-0.48-0.28
		L132.917,26.241z M134.477,29.96c-0.12-0.28,0-0.56,0.24-0.64c0.24-0.12,0.56,0,0.64,0.24l0.8,1.84c0.12,0.24,0,0.56-0.24,0.64
		c-0.12,0.04-0.16,0.04-0.2,0.04c-0.2,0-0.4-0.08-0.52-0.28L134.477,29.96z M136.277,33.959c-0.04-0.04-0.04-0.04-0.08-0.04
		c-0.08-0.08-0.12-0.16-0.16-0.24l-0.04-0.04c-0.08-0.24,0-0.52,0.28-0.64c0.08-0.04,0.2-0.04,0.32,0h0.12
		c0.24,0.12,0.4,0.4,0.32,0.64l-0.04,0.04c-0.04,0.12-0.16,0.24-0.28,0.28c-0.04,0.04-0.08,0.04-0.12,0.04h-0.08h-0.08
		c-0.04,0-0.12,0-0.12-0.04H136.277z M136.877,31.4l0.72-1.84c0.12-0.24,0.44-0.36,0.68-0.24c0.24,0.08,0.4,0.36,0.28,0.64
		l-0.8,1.84c-0.08,0.2-0.24,0.28-0.44,0.28c-0.04,0-0.16,0-0.2-0.04C136.877,31.96,136.717,31.64,136.877,31.4z M138.676,28.4
		c-0.28-0.16-0.36-0.4-0.28-0.72l0.76-1.8c0.08-0.28,0.4-0.36,0.64-0.28c0.28,0.08,0.4,0.4,0.32,0.64l-0.8,1.88
		c-0.08,0.16-0.24,0.28-0.44,0.28H138.676z M139.996,24.041l0.72-1.879c0.12-0.2,0.4-0.36,0.68-0.28c0.24,0.16,0.36,0.4,0.28,0.72
		l-0.8,1.8c-0.04,0.16-0.24,0.36-0.44,0.36c-0.08,0-0.16-0.08-0.24-0.08C139.996,24.561,139.876,24.281,139.996,24.041z
		 M141.516,20.322l0.76-1.84c0.08-0.24,0.4-0.36,0.64-0.24c0.32,0.12,0.4,0.4,0.32,0.64l-0.84,1.88c-0.04,0.2-0.24,0.28-0.44,0.28
		c-0.04,0-0.12,0-0.2-0.04C141.516,20.882,141.396,20.602,141.516,20.322z M143.076,16.643l0.72-1.84c0.2-0.24,0.44-0.36,0.72-0.24
		c0.24,0.08,0.36,0.36,0.24,0.64l-0.76,1.84c-0.08,0.2-0.28,0.28-0.48,0.28c-0.04,0-0.16,0-0.2-0.04
		C143.076,17.162,142.956,16.882,143.076,16.643z"/>
	<path fill="#FFFFFF" d="M151.317,24.081c-0.16,0-0.28-0.04-0.36-0.12c-0.28-0.08-0.52-0.32-0.48-0.56c0.08-0.72,0.2-1.4,0.4-2.04
		c0.08-0.32,0.36-0.44,0.64-0.36c0.24,0.04,0.36,0.36,0.32,0.6c-0.16,0.48-0.28,1.04-0.32,1.52h1.76c0.32,0,0.52,0.2,0.52,0.48
		c0,0.28-0.2,0.48-0.52,0.48H151.317z M150.557,25.521c-0.08-0.32,0.12-0.56,0.44-0.56c0.24-0.04,0.52,0.16,0.52,0.4
		c0.08,0.68,0.24,1.24,0.44,1.88c0.08,0.24-0.08,0.52-0.32,0.64h-0.12c-0.2,0-0.44-0.12-0.48-0.32
		C150.797,26.921,150.637,26.241,150.557,25.521z M151.677,19.402c0.36-0.68,0.76-1.2,1.24-1.76c0.16-0.2,0.48-0.2,0.68-0.08
		c0.2,0.2,0.24,0.52,0.04,0.76c-0.36,0.44-0.72,0.96-1.12,1.52c0,0.2-0.24,0.32-0.36,0.32c-0.12,0-0.2-0.08-0.28-0.12
		C151.637,19.922,151.517,19.642,151.677,19.402z M151.957,29.48c-0.16-0.28-0.12-0.56,0.12-0.72c0.28-0.12,0.56-0.04,0.72,0.16
		c0.28,0.56,0.68,1.04,1.16,1.52c0.2,0.2,0.16,0.52-0.04,0.72c-0.08,0.08-0.2,0.12-0.32,0.12s-0.32-0.04-0.4-0.12
		C152.757,30.64,152.277,30.08,151.957,29.48z M154.477,16.243c0.56-0.44,1.2-0.76,1.84-1.08c0.24-0.12,0.56,0,0.64,0.24
		c0.12,0.28,0,0.56-0.24,0.68c-0.6,0.24-1.16,0.6-1.68,0.92c-0.08,0.08-0.16,0.12-0.28,0.12c-0.16,0-0.28-0.04-0.4-0.2
		C154.197,16.683,154.237,16.362,154.477,16.243z M154.876,32.48c-0.28-0.12-0.32-0.44-0.16-0.68c0.16-0.28,0.44-0.32,0.72-0.16
		c0.48,0.36,1,0.64,1.64,0.84c0.24,0.12,0.4,0.44,0.28,0.64c-0.04,0.24-0.24,0.36-0.44,0.36c-0.04,0-0.08-0.04-0.2-0.04
		C156.076,33.2,155.437,32.92,154.876,32.48z M155.316,24.081c-0.28,0-0.52-0.2-0.52-0.48c0-0.28,0.24-0.48,0.52-0.48h2
		c0.32,0,0.52,0.2,0.52,0.48c0,0.28-0.2,0.48-0.52,0.48H155.316z M158.316,14.563c0.56-0.08,1.04-0.16,1.6-0.16
		c0.16,0,0.36,0,0.52,0.08c0.28,0,0.48,0.24,0.48,0.48c-0.04,0.32-0.24,0.52-0.56,0.52c-0.12-0.08-0.28-0.08-0.44-0.08
		c-0.48,0-0.959,0.08-1.399,0.16h-0.12c-0.24,0-0.44-0.2-0.48-0.4C157.876,14.843,158.076,14.603,158.316,14.563z M158.396,33.399
		c0-0.28,0.24-0.479,0.52-0.479c0.32,0.08,0.68,0.08,1,0.08c0.32,0,0.64,0,0.88-0.08c0.32,0,0.52,0.2,0.52,0.479
		c0.08,0.28-0.12,0.56-0.4,0.56c-0.32,0.04-0.64,0.04-1,0.04c-0.4,0-0.76,0-1.16-0.04C158.516,33.879,158.316,33.64,158.396,33.399z
		 M159.316,24.081c-0.24,0-0.48-0.2-0.48-0.48c0-0.28,0.24-0.48,0.48-0.48h2c0.32,0,0.52,0.2,0.52,0.48c0,0.28-0.2,0.48-0.52,0.48
		H159.316z M162.235,15.763c-0.24-0.08-0.4-0.36-0.28-0.6c0.04-0.32,0.36-0.44,0.6-0.36c0.68,0.24,1.32,0.48,1.96,0.8
		c0.24,0.16,0.28,0.48,0.2,0.72c-0.12,0.16-0.32,0.24-0.44,0.24s-0.24,0-0.28-0.04C163.435,16.243,162.835,15.962,162.235,15.763z
		 M162.635,32.56c0.6-0.2,1.16-0.52,1.72-0.84c0.24-0.12,0.56-0.08,0.68,0.2c0.16,0.16,0.08,0.48-0.12,0.64
		c-0.64,0.36-1.28,0.68-1.92,0.92h-0.2c-0.2,0-0.4-0.08-0.48-0.28C162.235,32.92,162.396,32.64,162.635,32.56z M163.315,24.081
		c-0.24,0-0.479-0.2-0.479-0.48c0-0.28,0.24-0.48,0.479-0.48h2.04c0.32,0,0.479,0.2,0.479,0.48c0,0.28-0.16,0.48-0.479,0.48H163.315
		z M165.475,17.642c-0.2-0.2-0.2-0.52,0-0.72c0.2-0.2,0.52-0.24,0.76-0.04c0.479,0.48,0.919,1,1.399,1.6
		c0.12,0.2,0.08,0.56-0.2,0.72c-0.08,0.04-0.2,0.08-0.28,0.08c-0.16,0-0.28-0.08-0.4-0.24
		C166.395,18.522,165.995,18.042,165.475,17.642z M165.795,30.52c0.44-0.44,0.879-0.96,1.2-1.52c0.16-0.16,0.44-0.28,0.72-0.12
		c0.2,0.12,0.28,0.44,0.16,0.68c-0.44,0.64-0.88,1.16-1.36,1.68c-0.04,0.12-0.2,0.16-0.36,0.16c-0.12,0-0.24-0.04-0.36-0.16
		C165.595,31.04,165.595,30.72,165.795,30.52z M167.354,24.081c-0.24,0-0.48-0.2-0.48-0.48c0-0.28,0.24-0.48,0.48-0.48h1.52
		c0.24,0,0.52,0.2,0.52,0.48c0,0.28-0.28,0.48-0.52,0.48H167.354z M167.714,20.682c-0.16-0.24,0-0.52,0.24-0.64
		c0.24-0.12,0.56,0,0.68,0.32c0.24,0.56,0.44,1.28,0.56,2c0.08,0.24-0.08,0.52-0.36,0.6h-0.12c-0.2,0-0.44-0.2-0.52-0.4
		C168.114,21.881,167.915,21.282,167.714,20.682z"/>
	<path fill="#FFFFFF" d="M175.797,14.683c0-0.28,0.2-0.52,0.52-0.52c0.24,0,0.48,0.24,0.48,0.52v1.4c0,0.24-0.24,0.52-0.48,0.52
		c-0.32,0-0.52-0.28-0.52-0.52V14.683z M175.797,18.122c0-0.32,0.2-0.52,0.52-0.52c0.24,0,0.48,0.2,0.48,0.52v2
		c0,0.28-0.24,0.52-0.48,0.52c-0.32,0-0.52-0.24-0.52-0.52V18.122z M175.797,22.162c0-0.32,0.2-0.52,0.52-0.52
		c0.24,0,0.48,0.2,0.48,0.52v2.04c0,0.24-0.24,0.48-0.48,0.48c-0.32,0-0.52-0.24-0.52-0.48V22.162z M175.797,26.201
		c0-0.24,0.2-0.48,0.52-0.48c0.24,0,0.48,0.2,0.48,0.48c0,0.6,0.12,1.28,0.32,1.84c0.08,0.28-0.04,0.56-0.36,0.64h-0.16
		c-0.2,0-0.4-0.08-0.44-0.36C175.957,27.681,175.797,26.961,175.797,26.201z M177.077,30.32c-0.16-0.28-0.12-0.56,0.12-0.72
		c0.28-0.16,0.56-0.08,0.72,0.16c0.36,0.52,0.76,1,1.24,1.4c0.2,0.2,0.24,0.52,0.04,0.72c-0.12,0.12-0.28,0.2-0.4,0.2
		s-0.2-0.04-0.32-0.16C177.917,31.48,177.477,30.92,177.077,30.32z M179.796,41.798c-0.24-0.08-0.4-0.36-0.36-0.6
		c0.12-0.32,0.36-0.44,0.6-0.36c0.64,0.16,1.28,0.24,1.92,0.32c0.28,0,0.48,0.2,0.48,0.48s-0.28,0.52-0.52,0.52
		C181.156,42.118,180.436,41.998,179.796,41.798z M182.316,33.799c-0.76-0.16-1.4-0.36-2.08-0.64c-0.24-0.16-0.32-0.48-0.2-0.72
		c0.12-0.24,0.4-0.36,0.68-0.2c0.56,0.24,1.16,0.44,1.759,0.56c0.32,0.04,0.44,0.28,0.4,0.6c-0.04,0.24-0.24,0.4-0.44,0.4H182.316z
		 M183.835,40.999c0.68-0.12,1.28-0.32,1.84-0.56c0.24-0.12,0.56,0,0.64,0.24c0.12,0.28,0,0.56-0.24,0.68
		c-0.64,0.28-1.32,0.48-2.04,0.64h-0.08c-0.28,0-0.48-0.2-0.52-0.4C183.396,41.278,183.596,41.038,183.835,40.999z M184.355,32.88
		c0.64-0.08,1.28-0.2,1.88-0.44c0.24-0.12,0.48,0.04,0.6,0.32c0.08,0.24,0,0.52-0.24,0.64c-0.68,0.24-1.4,0.4-2.16,0.52h-0.04
		c-0.24,0-0.44-0.2-0.48-0.48C183.916,33.16,184.116,32.88,184.355,32.88z M187.355,39.479c0.48-0.4,0.96-0.8,1.36-1.32
		c0.16-0.2,0.48-0.24,0.72-0.04c0.2,0.16,0.24,0.48,0.04,0.68c-0.48,0.56-0.96,1.08-1.52,1.479c-0.12,0.04-0.2,0.12-0.32,0.12
		c-0.2,0-0.36-0.08-0.4-0.2C187.035,39.999,187.075,39.639,187.355,39.479z M187.835,31.52c0.52-0.36,0.96-0.8,1.36-1.32
		c0.16-0.2,0.48-0.24,0.72-0.08c0.2,0.2,0.24,0.48,0.04,0.76c-0.4,0.56-0.96,1.04-1.52,1.44c-0.08,0.12-0.2,0.12-0.28,0.12
		c-0.16,0-0.32-0.04-0.4-0.2C187.595,32.04,187.635,31.72,187.835,31.52z M189.754,36.599c0.28-0.56,0.52-1.16,0.68-1.8
		c0.04-0.28,0.28-0.44,0.6-0.4c0.24,0.08,0.4,0.36,0.36,0.64c-0.16,0.68-0.4,1.359-0.76,2c-0.04,0.16-0.24,0.24-0.4,0.24
		c-0.12,0-0.2,0-0.28-0.04C189.714,37.159,189.635,36.839,189.754,36.599z M190.115,28.601c0.28-0.56,0.4-1.16,0.479-1.84
		c0.04-0.24,0.28-0.44,0.56-0.44s0.48,0.24,0.48,0.48v2.04c0,0.32-0.2,0.52-0.48,0.52c-0.12,0-0.24-0.04-0.36-0.12
		c-0.04,0.04-0.12,0.04-0.16,0.04c-0.12,0-0.16,0-0.2-0.04C190.154,29.16,190.035,28.84,190.115,28.601z M190.634,16.683v-2v-0.08
		c0.04-0.24,0.24-0.439,0.52-0.439h0.08c0.04,0,0.08,0.04,0.12,0.04c0.08,0.04,0.12,0.12,0.16,0.16c0.08,0.08,0.12,0.2,0.12,0.32v2
		c0,0.08,0,0.12-0.04,0.2c-0.04,0.2-0.24,0.32-0.44,0.32h-0.16c-0.04-0.04-0.08-0.04-0.12-0.08c-0.08-0.04-0.16-0.08-0.2-0.16
		c0-0.04-0.04-0.12-0.04-0.16V16.683z M190.634,20.762v-2.04v-0.08v-0.04c0.04-0.04,0.04-0.08,0.08-0.12
		c0.04-0.12,0.12-0.2,0.24-0.24c0.04,0,0.08-0.04,0.12-0.04h0.08h0.08c0.12,0.04,0.2,0.12,0.28,0.2c0.04,0.04,0.08,0.12,0.08,0.16
		s0.04,0.08,0.04,0.08v0.08v2.04c0,0.08-0.04,0.16-0.04,0.24l-0.08,0.08c0,0.04-0.04,0.04-0.04,0.08c-0.04,0-0.08,0.04-0.12,0.04
		c0,0,0,0.04-0.04,0.04h-0.16h-0.08c-0.08,0-0.2-0.04-0.24-0.08l-0.12-0.12c-0.04,0-0.04-0.04-0.04-0.08
		c-0.04-0.04-0.04-0.08-0.04-0.12V20.762z M190.634,24.801v-2.04v-0.08v-0.04c0.04-0.08,0.08-0.12,0.12-0.2
		c0.04,0,0.04-0.04,0.08-0.04c0.08-0.08,0.2-0.12,0.32-0.12c0.16,0,0.28,0.08,0.36,0.2c0.04,0.04,0.08,0.08,0.08,0.12
		s0.04,0.08,0.04,0.08v0.08v2.04v0.12c0,0-0.04,0.04-0.04,0.08c0,0.08-0.08,0.12-0.12,0.2c-0.04,0-0.08,0.04-0.12,0.04
		c-0.04,0.04-0.08,0.04-0.12,0.04h-0.08c-0.12,0-0.24-0.04-0.32-0.08c-0.12-0.08-0.2-0.2-0.2-0.32V24.801z M190.634,32.88v-2
		c0-0.28,0.24-0.52,0.52-0.52s0.48,0.24,0.48,0.52v2c0,0.32-0.2,0.52-0.48,0.52S190.634,33.2,190.634,32.88z"/>
</g>
</svg>
